<svg xmlns="http://www.w3.org/2000/svg" version="1.1" xmlns:xlink="http://www.w3.org/1999/xlink" width="1000" height="1000"><metadata><rdf:RDF xmlns:rdf="http://www.w3.org/1999/02/22-rdf-syntax-ns#" xmlns:dc="http://purl.org/dc/elements/1.1/"><rdf:Description><dc:creator>RealFaviconGenerator</dc:creator><dc:source>https://realfavicongenerator.net</dc:source></rdf:Description></rdf:RDF></metadata><style>
    #light-icon {
      display: inline;
    }
    #dark-icon {
      display: none;
    }

    @media (prefers-color-scheme: dark) {
      #light-icon {
        display: none;
      }
      #dark-icon {
        display: inline;
      }
    }
  </style><g id="light-icon"><svg xmlns="http://www.w3.org/2000/svg" version="1.1" xmlns:xlink="http://www.w3.org/1999/xlink" width="1000" height="1000"><g clip-path="url(#SvgjsClipPath1065)"><rect width="1000" height="1000" fill="#ffffff"></rect><g transform="matrix(5,0,0,5,0,0)"><svg xmlns="http://www.w3.org/2000/svg" version="1.1" xmlns:xlink="http://www.w3.org/1999/xlink" viewBox="0 0 200 200" width="200" height="200"><rect width="200" height="200" fill="url('#gradient')"></rect><defs><linearGradient id="gradient" gradientTransform="rotate(45 0.5 0.5)"><stop offset="0%" stop-color="#ba8d66"></stop><stop offset="100%" stop-color="#984a4d"></stop></linearGradient><clipPath id="SvgjsClipPath1065"><rect width="1000" height="1000" x="0" y="0" rx="500" ry="500"></rect></clipPath></defs><g><g fill="#589f9c" transform="matrix(3.7349544072948326,0,0,3.7349544072948326,8.101951308525813,127.64100532067945)" stroke="#5bcad4" stroke-width="0.2"><path d="M5.39-2.34L5.39-2.34Q6.08-2.34 6.46-2.72Q6.85-3.10 6.84-3.77L6.84-3.77L9.92-3.77Q9.92-2.03 8.68-0.92Q7.43 0.20 5.47 0.20L5.47 0.20Q3.16 0.20 1.84-1.25Q0.51-2.70 0.51-5.25L0.51-5.25L0.51-5.39Q0.51-6.99 1.10-8.22Q1.69-9.44 2.80-10.10Q3.92-10.76 5.44-10.76L5.44-10.76Q7.50-10.76 8.71-9.62Q9.92-8.48 9.92-6.52L9.92-6.52L6.84-6.52Q6.84-7.34 6.44-7.78Q6.04-8.22 5.36-8.22L5.36-8.22Q4.08-8.22 3.87-6.59L3.87-6.59Q3.80-6.07 3.80-5.17L3.80-5.17Q3.80-3.57 4.18-2.96Q4.56-2.34 5.39-2.34ZM14.79-15L14.79 0L11.48 0L11.48-15L14.79-15ZM16.41-4.82L16.40-5.38Q16.40-6.96 17.01-8.20Q17.63-9.43 18.78-10.10Q19.93-10.76 21.48-10.76L21.48-10.76Q23.86-10.76 25.22-9.29Q26.59-7.82 26.59-5.29L26.59-5.29L26.59-5.18Q26.59-2.71 25.22-1.25Q23.85 0.20 21.50 0.20L21.50 0.20Q19.25 0.20 17.88-1.16Q16.51-2.51 16.41-4.82L16.41-4.82ZM19.70-5.77L19.69-5.18Q19.69-3.71 20.15-3.03Q20.61-2.34 21.50-2.34L21.50-2.34Q23.26-2.34 23.30-5.05L23.30-5.05L23.30-5.38Q23.30-8.22 21.48-8.22L21.48-8.22Q19.83-8.22 19.70-5.77L19.70-5.77ZM34.43 0L34.34-1.14Q33.29 0.20 31.51 0.20L31.51 0.20Q29.78 0.20 28.88-0.82Q27.99-1.83 27.99-3.72L27.99-3.72L27.99-10.57L31.28-10.57L31.28-3.70Q31.28-2.34 32.60-2.34L32.60-2.34Q33.73-2.34 34.21-3.15L34.21-3.15L34.21-10.57L37.52-10.57L37.52 0L34.43 0ZM38.91-5.36L38.91-5.36Q38.91-7.87 39.99-9.32Q41.07-10.76 43.02-10.76L43.02-10.76Q44.43-10.76 45.40-9.65L45.40-9.65L45.40-15L48.70-15L48.70 0L45.74 0L45.58-1.13Q44.56 0.20 43.00 0.20L43.00 0.20Q41.11 0.20 40.01-1.25Q38.91-2.70 38.91-5.36ZM42.21-5.76L42.20-5.16Q42.20-2.34 43.84-2.34L43.84-2.34Q44.93-2.34 45.40-3.26L45.40-3.26L45.40-7.29Q44.95-8.22 43.86-8.22L43.86-8.22Q42.33-8.22 42.21-5.76L42.21-5.76Z"></path></g></g></svg></g></g></svg></g><g id="dark-icon"><svg xmlns="http://www.w3.org/2000/svg" version="1.1" xmlns:xlink="http://www.w3.org/1999/xlink" width="1000" height="1000"><g clip-path="url(#SvgjsClipPath1066)"><rect width="1000" height="1000" fill="#ffffff"></rect><g transform="matrix(5,0,0,5,0,0)"><svg xmlns="http://www.w3.org/2000/svg" version="1.1" xmlns:xlink="http://www.w3.org/1999/xlink" viewBox="0 0 200 200" width="200" height="200"><rect width="200" height="200" fill="url('#gradient')"></rect><defs><linearGradient id="gradient" gradientTransform="rotate(45 0.5 0.5)"><stop offset="0%" stop-color="#ba8d66"></stop><stop offset="100%" stop-color="#984a4d"></stop></linearGradient><clipPath id="SvgjsClipPath1066"><rect width="1000" height="1000" x="0" y="0" rx="500" ry="500"></rect></clipPath></defs><g><g fill="#589f9c" transform="matrix(3.7349544072948326,0,0,3.7349544072948326,8.101951308525813,127.64100532067945)" stroke="#5bcad4" stroke-width="0.2"><path d="M5.39-2.34L5.39-2.34Q6.08-2.34 6.46-2.72Q6.85-3.10 6.84-3.77L6.84-3.77L9.92-3.77Q9.92-2.03 8.68-0.92Q7.43 0.20 5.47 0.20L5.47 0.20Q3.16 0.20 1.84-1.25Q0.51-2.70 0.51-5.25L0.51-5.25L0.51-5.39Q0.51-6.99 1.10-8.22Q1.69-9.44 2.80-10.10Q3.92-10.76 5.44-10.76L5.44-10.76Q7.50-10.76 8.71-9.62Q9.92-8.48 9.92-6.52L9.92-6.52L6.84-6.52Q6.84-7.34 6.44-7.78Q6.04-8.22 5.36-8.22L5.36-8.22Q4.08-8.22 3.87-6.59L3.87-6.59Q3.80-6.07 3.80-5.17L3.80-5.17Q3.80-3.57 4.18-2.96Q4.56-2.34 5.39-2.34ZM14.79-15L14.79 0L11.48 0L11.48-15L14.79-15ZM16.41-4.82L16.40-5.38Q16.40-6.96 17.01-8.20Q17.63-9.43 18.78-10.10Q19.93-10.76 21.48-10.76L21.48-10.76Q23.86-10.76 25.22-9.29Q26.59-7.82 26.59-5.29L26.59-5.29L26.59-5.18Q26.59-2.71 25.22-1.25Q23.85 0.20 21.50 0.20L21.50 0.20Q19.25 0.20 17.88-1.16Q16.51-2.51 16.41-4.82L16.41-4.82ZM19.70-5.77L19.69-5.18Q19.69-3.71 20.15-3.03Q20.61-2.34 21.50-2.34L21.50-2.34Q23.26-2.34 23.30-5.05L23.30-5.05L23.30-5.38Q23.30-8.22 21.48-8.22L21.48-8.22Q19.83-8.22 19.70-5.77L19.70-5.77ZM34.43 0L34.34-1.14Q33.29 0.20 31.51 0.20L31.51 0.20Q29.78 0.20 28.88-0.82Q27.99-1.83 27.99-3.72L27.99-3.72L27.99-10.57L31.28-10.57L31.28-3.70Q31.28-2.34 32.60-2.34L32.60-2.34Q33.73-2.34 34.21-3.15L34.21-3.15L34.21-10.57L37.52-10.57L37.52 0L34.43 0ZM38.91-5.36L38.91-5.36Q38.91-7.87 39.99-9.32Q41.07-10.76 43.02-10.76L43.02-10.76Q44.43-10.76 45.40-9.65L45.40-9.65L45.40-15L48.70-15L48.70 0L45.74 0L45.58-1.13Q44.56 0.20 43.00 0.20L43.00 0.20Q41.11 0.20 40.01-1.25Q38.91-2.70 38.91-5.36ZM42.21-5.76L42.20-5.16Q42.20-2.34 43.84-2.34L43.84-2.34Q44.93-2.34 45.40-3.26L45.40-3.26L45.40-7.29Q44.95-8.22 43.86-8.22L43.86-8.22Q42.33-8.22 42.21-5.76L42.21-5.76Z"></path></g></g></svg></g></g></svg></g></svg>